{"title":"The Hobbit The Desolation of Smaug HFR 48fps ITA ENG AC3 BDRip 1","uid":11262495,"size":9951326159,"categoryP":"video","categoryS":"movies","magnet":"?xt=urn:btih:b6ff80730899f7f8843900c871044635e1ed0d48&amp;dn=The+Hobbit+The+Desolation+of+Smaug+HFR+48fps+ITA+ENG+AC3+BDRip+1&amp;tr=udp%3A%2F%2Ftracker.openbittorrent.com%3A80&amp;tr=udp%3A%2F%2Fopen.demonii.com%3A1337&amp;tr=udp%3A%2F%2Ftracker.coppersurfer.tk%3A6969&amp;tr=udp%3A%2F%2Fexodus.desync.com%3A6969","seeders":5,"leechers":1,"uploader":"ZMachTNT","files":1,"time":1413986020,"description":"[b]The Hobbit: The Desolation of Smaug HFR 48 fps (2013) - ZMachine\n\nLo Hobbit: La Desolazione di Smaug HFR 48 fps (2013) - ZMachine[/b]\n\n[color=crimson][b]:: Screenshots ::[/b][/color]\n\n[URL=http://imgur.com/dSzBMrK][IMG]http://i.imgur.com/dSzBMrKl.png[/IMG][/URL]\n[URL=http://imgur.com/QfeglOe][IMG]http://i.imgur.com/QfeglOel.png[/IMG][/URL]\n[URL=http://imgur.com/hQis0jV][IMG]http://i.imgur.com/hQis0jVl.png[/IMG][/URL]\n[URL=http://imgur.com/69Rvpgx][IMG]http://i.imgur.com/69Rvpgxl.png[/IMG][/URL]\n[URL=http://imgur.com/LztNdFO][IMG]http://i.imgur.com/LztNdFOl.png[/IMG][/URL]\n[URL=http://imgur.com/nMB9Vzy][IMG]http://i.imgur.com/nMB9Vzyl.png[/IMG][/URL]\n\n[color=crimson][b]:: Mediainfo ::[/b][/color]\n\nGeneral\nUnique ID                                : 216470356494818167603698279214587512025 (0xA2DAAC960C5BF6F28517F6EFA07304D9)\nComplete name                            : E:CONTROLLAREThe.Hobbit.The.Desolation.of.Smaug.HFR.48fps.ITA.ENG.AC3.BDRip.1080p.X264_ZMachine.mkv\nFormat                                   : Matroska\nFormat version                           : Version 4 / Version 2\nFile size                                : 9.27 GiB\nDuration                                 : 2h 41mn\nOverall bit rate                         : 8 226 Kbps\nMovie name                               : Lo Hobbit: La Desolazione di Smaug - ZMachine\nEncoded date                             : UTC 2014-10-16 17:13:05\nWriting application                      : mkvmerge v7.2.0 ('On Every Street') 32bit built on Sep 13 2014 15:42:11\nWriting library                          : Lavf54.63.104\n\nVideo\nID                                       : 1\nFormat                                   : AVC\nFormat/Info                              : Advanced Video Codec\nFormat profile                           : &lt;a class=&quot;__cf_email__&quot; href=&quot;/cdn-cgi/l/email-protection&quot; data-cfemail=&quot;e9a1808e81a9a5ddc7d8&quot;&gt;[email&amp;#160;protected]&lt;/a&gt;&lt;script cf-hash='f9e31' type=&quot;text/javascript&quot;&gt;\n/* &lt;![CDATA[ */!function(){try{var t=&quot;currentScript&quot;in document?document.currentScript:function(){for(var t=document.getElementsByTagName(&quot;script&quot;),e=t.length;e--;)if(t[e].getAttribute(&quot;cf-hash&quot;))return t[e]}();if(t&amp;&amp;t.previousSibling){var e,r,n,i,c=t.previousSibling,a=c.getAttribute(&quot;data-cfemail&quot;);if(a){for(e=&quot;&quot;,r=parseInt(a.substr(0,2),16),n=2;a.length-n;n+=2)i=parseInt(a.substr(n,2),16)^r,e+=String.fromCharCode(i);e=document.createTextNode(e),c.parentNode.replaceChild(e,c)}}}catch(u){}}();/* ]]&gt; */&lt;/script&gt;\nFormat settings, CABAC                   : Yes\nFormat settings, ReFrames                : 5 frames\nCodec ID                                 : V_MPEG4/ISO/AVC\nDuration                                 : 2h 41mn\nBit rate                                 : 6 974 Kbps\nWidth                                    : 1 920 pixels\nHeight                                   : 800 pixels\nDisplay aspect ratio                     : 2.40:1\nFrame rate mode                          : Constant\nFrame rate                               : 47.952 fps\nColor space                              : YUV\nChroma subsampling                       : 4:2:0\nBit depth                                : 8 bits\nScan type                                : Progressive\nBits/(Pixel*Frame)                       : 0.095\nStream size                              : 7.86 GiB (85%)\nWriting library                          : x264 core 123 r2189 35cf912\nEncoding settings                        : cabac=1 / ref=5 / deblock=1:0:0 / analyse=0x3:0x133 / me=esa / subme=9 / psy=1 / psy_rd=1.10:0.25 / mixed_ref=1 / me_range=24 / chroma_me=1 / trellis=1 / 8x8dct=1 / cqm=0 / deadzone=21,11 / fast_pskip=1 / chroma_qp_offset=-4 / threads=30 / sliced_threads=0 / nr=0 / decimate=1 / interlaced=0 / bluray_compat=0 / constrained_intra=0 / bframes=7 / b_pyramid=2 / b_adapt=2 / b_bias=0 / direct=1 / weightb=1 / open_gop=0 / weightp=2 / keyint=250 / keyint_min=25 / scenecut=40 / intra_refresh=0 / rc_lookahead=40 / rc=crf / mbtree=1 / crf=19.0 / qcomp=0.60 / qpmin=10 / qpmax=51 / qpstep=4 / ip_ratio=1.40 / aq=1:1.00\nDefault                                  : Yes\nForced                                   : No\n\nAudio #1\nID                                       : 2\nFormat                                   : AC-3\nFormat/Info                              : Audio Coding 3\nMode extension                           : CM (complete main)\nFormat settings, Endianness              : Big\nCodec ID                                 : A_AC3\nDuration                                 : 2h 41mn\nBit rate mode                            : Constant\nBit rate                                 : 448 Kbps\nChannel(s)                               : 6 channels\nChannel positions                        : Front: L C R, Side: L R, LFE\nSampling rate                            : 48.0 KHz\nBit depth                                : 16 bits\nCompression mode                         : Lossy\nDelay relative to video                  : -395ms\nStream size                              : 517 MiB (5%)\nTitle                                    : Audio AC3\nLanguage                                 : Italian\nDefault                                  : Yes\nForced                                   : No\n\nAudio #2\nID                                       : 3\nFormat                                   : AC-3\nFormat/Info                              : Audio Coding 3\nMode extension                           : CM (complete main)\nFormat settings, Endianness              : Big\nCodec ID                                 : A_AC3\nDuration                                 : 2h 41mn\nBit rate mode                            : Constant\nBit rate                                 : 640 Kbps\nChannel(s)                               : 6 channels\nChannel positions                        : Front: L C R, Side: L R, LFE\nSampling rate                            : 48.0 KHz\nBit depth                                : 16 bits\nCompression mode                         : Lossy\nDelay relative to video                  : -395ms\nStream size                              : 738 MiB (8%)\nTitle                                    : Audio AC3\nLanguage                                 : English\nDefault                                  : No\nForced                                   : No\n\nText #1\nID                                       : 4\nFormat                                   : ASS\nCodec ID                                 : S_TEXT/ASS\nCodec ID/Info                            : Advanced Sub Station Alpha\nCompression mode                         : Lossless\nTitle                                    : Sub Forced\nLanguage                                 : Italian\nDefault                                  : Yes\nForced                                   : Yes\n\nText #2\nID                                       : 5\nFormat                                   : ASS\nCodec ID                                 : S_TEXT/ASS\nCodec ID/Info                            : Advanced Sub Station Alpha\nCompression mode                         : Lossless\nTitle                                    : Sub\nLanguage                                 : Italian\nDefault                                  : No\nForced                                   : No\n\nText #3\nID                                       : 6\nFormat                                   : ASS\nCodec ID                                 : S_TEXT/ASS\nCodec ID/Info                            : Advanced Sub Station Alpha\nCompression mode                         : Lossless\nTitle                                    : Sub\nLanguage                                 : English\nDefault                                  : No\nForced                                   : No\n\nMenu\n00:00:00.000                             : en:The Quest for Erebor\n00:05:44.093                             : en:Wilderland\n00:10:10.985                             : en:The Master Summons\n00:11:10.127                             : en:A Commander of Legions\n00:13:50.204                             : en:Queer Lodgings\n00:17:12.656                             : en:The Elven-gate\n00:21:25.325                             : en:Mirkwood\n00:24:33.471                             : en:Flies and Spiders\n00:33:03.272                             : en:The Woodland Realm\n00:36:05.746                             : en:The Elvenking\n00:39:38.959                             : en:King and Captain\n00:41:29.653                             : en:Feast of Starlight\n00:44:27.289                             : en:Barrels Out of Bond\n00:55:01.756                             : en:The High Fells\n00:58:41.768                             : en:Bard the Bowman\n01:02:05.138                             : en:The Nature of Evil\n01:05:29.592                             : en:Smuggled Cargo\n01:09:06.267                             : en:Lake-town\n01:11:29.118                             : en:The Master of Lake-town\n01:13:11.762                             : en:The Home of Bard\n01:19:14.958                             : en:&quot;It Is Our Fight&quot;\n01:20:48.468                             : en:The Prophecy\n01:23:12.529                             : en:A Warm Welcome\n01:27:09.641                             : en:The Lonely Mountain\n01:30:45.481                             : en:A Spell of Concealment\n01:33:29.812                             : en:On the Doorstep\n01:41:57.194                             : en:Kingsfoil\n01:42:24.471                             : en:The Courage of Hobbits\n01:44:08.033                             : en:The Enemy Revealed\n01:47:34.114                             : en:Inside Information\n01:56:46.332                             : en:The Black Arrow\n01:57:28.916                             : en:In the Dragon's Lair\n01:58:03.409                             : en:Under Arrest\n01:59:42.300                             : en:Bilbo the Burglar\n02:01:30.574                             : en:Smaug the Magnificent\n02:04:04.311                             : en:Orc Attack\n02:07:58.462                             : en:Confrontations\n02:09:43.108                             : en:Elvish Medicine\n02:10:58.642                             : en:Hunter and Hunted\n02:12:31.443                             : en:&quot;She Walks in Starlight&quot;\n02:13:54.317                             : en:A Desperate Plan\n02:16:25.427                             : en:Duel in Lake-town\n02:18:51.489                             : en:The Forges Relit\n02:26:03.588                             : en:Smaug the Golden\n02:30:51.208                             : en:Credits","torrent":{"xt":"urn:btih:b6ff80730899f7f8843900c871044635e1ed0d48","amp;dn":"The+Hobbit+The+Desolation+of+Smaug+HFR+48fps+ITA+ENG+AC3+BDRip+1","amp;tr":["udp%3A%2F%2Ftracker.openbittorrent.com%3A80","udp%3A%2F%2Fopen.demonii.com%3A1337","udp%3A%2F%2Ftracker.coppersurfer.tk%3A6969","udp%3A%2F%2Fexodus.desync.com%3A6969"],"infoHash":"b6ff80730899f7f8843900c871044635e1ed0d48","infoHashBuffer":{"type":"Buffer","data":[182,255,128,115,8,153,247,248,132,57,0,200,113,4,70,53,225,237,13,72]},"announce":[],"urlList":[]}}